<?xml version="1.0" encoding="iso-8859-1"?>
<!-- Generator: Adobe Illustrator 19.0.0, SVG Export Plug-In . SVG Version: 6.00 Build 0)  -->
<svg version="1.1" id="Capa_1" xmlns="http://www.w3.org/2000/svg" xmlns:xlink="http://www.w3.org/1999/xlink" x="0px" y="0px"
	 viewBox="0 0 512 512" style="enable-background:new 0 0 512 512;" xml:space="preserve">
<path style="fill:#6E6E6E;" d="M401,371.526c-3.114-22.421-54.054-58.672-54.566-54.295c-0.888,7.59-11.434,17.295-30.434,10.295
	c-3.822-1.408,27,59,12,66c-22.925,10.698-44.584-54.497-50-54.04c-9.206,0.777-19.961-0.338-30.9-2.694
	c-42.965,21.574-49.175,70.615-49.233,71.11c-1.283,10.97-11.204,18.81-22.187,17.543c-10.971-1.283-18.825-11.217-17.543-22.187
	c0.281-2.399,6.242-49.378,43.305-83.187c-11.978-6.574-20.232-13.717-20.863-19.591c-26.981,11.037-44.328,28.663-47.579,53.046
	c0,0-15,148-123,148h492C406,501.526,401,371.526,401,371.526z"/>
<g>
	<path style="fill:#EC3C32;" d="M375,142.526c14.55-10.328,24-26.799,24-46c0-31.48-25.52-57-57-57
		c-9.801,0-19.022,2.476-27.077,6.832C306.517,25.363,285.998,10.526,262,10.526s-44.517,14.837-52.923,35.832
		c-8.055-4.357-17.277-6.832-27.077-6.832c-31.48,0-57,25.52-57,57c0,19.201,9.504,36.172,24.055,46.5
		c-14.55,10.328-24.055,27.299-24.055,46.5c0,31.48,24.52,58,56,58v53c0,0-0.094,0.342-0.236,0.95
		c1.387,5.673,9.375,12.386,20.681,18.592c8.034-7.329,17.522-14.042,28.74-19.544c3.263-1.601,6.75-2.231,10.134-2.003
		c6.899,0.465,13.367,4.498,16.631,11.151c4.864,9.917,0.769,21.899-9.148,26.764c-0.237,0.116-0.466,0.238-0.701,0.355
		c10.938,2.357,21.694,3.472,30.9,2.694c5.416-0.457,27.075,64.737,50,54.04c15-7-15.822-67.408-12-66
		c18.054,6.651,28.468-1.779,30.223-9.147c0.008-0.039,0.012-0.085,0.02-0.123c-0.142-0.469-0.243-0.73-0.243-0.73v-71
		c31.48,0,53-25.52,53-57C399,170.325,389.55,152.854,375,142.526z"/>
	<path style="fill:#EC3C32;" d="M240.318,298.521c6.899,0.465,13.367,4.498,16.631,11.151c4.864,9.917,0.769,21.899-9.148,26.764
		c-43.603,21.388-49.875,70.967-49.933,71.465c-1.283,10.97-11.204,18.81-22.187,17.543c-10.971-1.283-18.825-11.216-17.543-22.187
		c0.341-2.919,9.082-71.847,72.047-102.733C233.448,298.924,236.934,298.293,240.318,298.521z"/>
</g>
<path d="M369.965,424.366c1.022-12.716-18.804-14.618-19.927-1.706c-0.244,2.805-1.962,27.857,12.614,43.648
	c8.684,9.409,23.505-4.022,14.697-13.565C370.052,444.84,369.545,429.586,369.965,424.366z"/>
<path d="M511,149.526c0-5.51-4.49-10-10-10s-10,4.49-10,10s4.49,10,10,10S511,155.036,511,149.526z"/>
<path d="M433,159.526h28c5.51,0,10-4.49,10-10s-4.49-10-10-10h-28c-5.51,0-10,4.49-10,10S427.49,159.526,433,159.526z"/>
<path d="M1,153.526c0,5.51,4.49,10,10,10s10-4.49,10-10s-4.49-10-10-10S1,148.016,1,153.526z"/>
<path d="M51,143.526c-5.51,0-10,4.49-10,10s4.49,10,10,10h28c5.51,0,10-4.49,10-10s-4.49-10-10-10H51z"/>
<path d="M501.992,270.573c8.461-0.144,14.503-12.651,5.393-18.473c0,0-66.357-42.408-66.5-42.5
	c-10.86-6.941-21.66,9.893-10.771,16.852c0,0,66.484,42.49,66.5,42.5C498.436,270.116,500.264,270.602,501.992,270.573z"/>
<path d="M10.008,270.586c1.736,0.036,3.589-0.467,5.455-1.684c0,0,68.904-44.937,69-45c10.54-6.874-0.054-23.842-10.926-16.752
	c0,0-68.77,44.85-68.999,45C-4.022,257.733,1.643,270.412,10.008,270.586z"/>
<path d="M103.83,269.756c0,0-28.78,40.731-28.85,40.83c-7.31,10.345,8.825,22.176,16.33,11.54l28.86-40.83
	c3.18-4.5,2.1-10.749-2.399-13.939C113.445,264.289,107.003,265.284,103.83,269.756z"/>
<path d="M60.067,339.116c-2.932-0.193-5.944,0.976-8.177,4.14c-4.345,6.157,0.244,15.77,8.16,15.77c3.25,0,6.299-1.58,8.179-4.229
	C73.388,347.528,66.95,339.569,60.067,339.116z"/>
<path d="M399.996,265.665c-6.907,0.416-13.444,8.163-8.166,15.632c0,0,28.793,40.736,28.86,40.829
	c7.389,10.454,23.839-0.913,16.33-11.539c0,0-28.767-40.712-28.85-40.83C405.976,266.652,402.952,265.486,399.996,265.665z"/>
<path d="M451.93,339.133c-7.973-0.119-12.737,9.184-8.16,15.662c3.071,4.346,9.611,5.455,13.94,2.401
	c4.45-3.14,5.534-9.504,2.401-13.939C458.28,340.665,455.118,339.181,451.93,339.133z"/>
<path d="M433.194,87.76c1.669,4.712,6.271,8.347,12.248,6.154c0,0,59.864-21.95,60-22c11.828-4.337,5.311-23.256-6.885-18.777
	c0,0-59.754,21.91-59.999,22C432.792,77.252,431.524,83.045,433.194,87.76z"/>
<path d="M6.558,71.915l60,22c3.829,1.404,8.273,0.273,10.965-2.803c4.563-5.213,2.395-13.6-4.081-15.974c0,0-59.833-21.939-60-22
	C1.408,48.725-5.622,67.449,6.558,71.915z"/>
<path d="M60.432,18.067c0,0,30.983,26.985,31,27c9.521,8.293,23.02-6.472,13.136-15.082c0,0-30.937-26.945-31-27
	C63.897-5.438,50.651,9.547,60.432,18.067z"/>
<path d="M414.016,47.407c2.153,0.173,4.427-0.49,6.551-2.339c0,0,30.939-26.946,31-27c9.691-8.44-3.364-23.59-13.136-15.082
	c0,0-30.838,26.859-30.999,26.999C400.48,36.04,406.51,46.804,414.016,47.407z"/>
<path d="M304.002,297.702c4.999,0.042,9.998-2.974,9.998-9.176c0,0,0-50.924,0-51c0-12.871-20-12.928-20,0c0,0,0,50.82,0,51
	C294,294.559,299.001,297.66,304.002,297.702z"/>
<path d="M264,265.526c5.523,0,10-4.477,10-10v-84c0-5.523-4.477-10-10-10s-10,4.477-10,10v84
	C254,261.049,258.477,265.526,264,265.526z"/>
<path d="M222,274.526c5.523,0,10-4.477,10-10v-51c0-5.523-4.477-10-10-10s-10,4.477-10,10v51
	C212,270.049,216.477,274.526,222,274.526z"/>
<path d="M304,205.526c5.523,0,10-4.477,10-10v-27c0-5.523-4.477-10-10-10s-10,4.477-10,10v27
	C294,201.049,298.477,205.526,304,205.526z"/>
<path d="M502,491.526c-35.214,0-61.141-19.627-77.06-58.337c-8.536-20.756-10.669-41.614-14.1-63.485
	c-3.73-23.775-29.334-42.914-47.919-55.566c-2.776-1.89-5.032-3.279-6.921-4.318v-54.06c30.828-4.801,53-31.672,53-66.234
	c0-17.708-6.834-34.523-18.717-46.949C402.298,130.274,409,114.035,409,96.526c0-36.944-30.056-67-67-67
	c-7.625,0-15.205,1.31-22.353,3.833C307.719,13.13,286.052,0.526,262,0.526s-45.719,12.604-57.647,32.833
	c-7.148-2.523-14.728-3.833-22.353-3.833c-36.944,0-67,30.056-67,67c0,17.457,6.863,34.115,18.793,46.5
	c-11.93,12.385-18.793,29.043-18.793,46.5c0,33.994,24.335,62.242,56,67.221v37.007c-28.018,13.045-44.539,33.153-47.912,58.45
	c-0.014,0.104-0.026,0.209-0.037,0.313c-0.036,0.353-3.768,35.722-20.114,70.783C81.831,468.572,50.562,491.526,10,491.526
	c-5.523,0-10,4.477-10,10s4.477,10,10,10h492c5.523,0,10-4.477,10-10S507.523,491.526,502,491.526z M135,189.526
	c0-28.798,28.212-53.148,56.757-41.972c7.234,2.832,12.44,8.581,15.915,17.575c4.624,11.967,23.333,4.899,18.657-7.207
	c-5.531-14.316-14.709-24.07-27.28-28.992c-18.482-7.237-39.045-1.422-48.781,2.234C140.622,122.312,135,109.745,135,96.526
	c0-25.916,21.084-47,47-47c14.525,0,38.125,10.66,37.02,28.375c-0.801,12.845,19.155,14.151,19.961,1.248
	c1-15.995-9.842-28.633-17.484-35.479c8.355-14.257,23.589-23.145,40.504-23.145c16.847,0,32.025,8.819,40.401,22.976
	c-8.469,7.073-21.799,20.736-25.839,39.258c-3.178,14.57-0.13,29.111,9.058,43.222c7.045,10.819,23.805-0.095,16.76-10.913
	c-6.226-9.562-8.287-18.704-6.298-27.951c4.514-20.991,24.529-37.592,45.918-37.592c25.916,0,47,21.084,47,47
	c0,13.653-5.893,26.209-16.287,35.092c-8.597-1.966-26.356-4.947-42.257-0.763c-12.47,3.282-7.406,22.625,5.089,19.342
	c13.358-3.516,29.851,0.151,34.967,1.468c11.598,8.87,18.488,22.89,18.488,37.861c0,27.233-18.084,47-43,47c-5.523,0-10,4.477-10,10
	c0,0,0,69.754,0,70.458c-0.015,5.349-14.894,2.318-17,1.542c-11.091-4.088-14.738,7.716-11.895,16.043
	c3.981,11.659,9.007,22.91,12.363,34.791c2.42,8.567,2.75,13.067,2.672,15.203c-2.582-0.596-6.212-4.084-9.109-7.642
	c-6.381-7.836-12.269-19.003-16.999-27.976c-7.063-13.397-10.604-20.123-18.875-19.423c-3.122,0.263-6.592,0.254-10.295,0.017
	c3.009-7.593,2.934-16.377-0.938-24.27c-7.162-14.602-25.551-20.884-40.146-13.722c-9.593,4.706-18.015,10.231-25.41,16.258
	c-5.138-3.332-8.152-6.126-9.37-7.825v-52.454c0-5.523-4.477-10-10-10C155.636,237.526,135,215.994,135,189.526z M243.396,327.459
	c-48.431,23.756-55.39,78.675-55.461,79.281c-1.49,12.713-21.37,10.558-19.866-2.32c0.316-2.698,8.406-66.411,66.518-94.917
	C246.062,303.875,255.041,321.747,243.396,327.459z M337.991,491.526c-7.395-5.183-31.99-24.984-31.991-58.999
	c0-12.58-20-13.125-20-0.001c0,26.524,11.338,46.124,22.5,59H206.374c10.98-11.554,22.993-26.999,25.478-41.285
	c2.199-12.643-17.489-16.168-19.704-3.428c-2.28,13.108-21.503,33.378-34.77,44.713H74.087
	c18.879-13.422,34.714-33.473,46.976-59.774c17.328-37.168,21.524-73.809,21.867-77.039c2.373-17.44,13.573-31.3,33.336-41.294
	c2.537,3.026,5.764,5.854,9.324,8.463c-31.681,35.131-37.108,77.84-37.386,80.214c-1.885,16.09,9.437,29.218,24.775,32.601
	c16.589,3.658,32.863-8.898,34.812-25.572c0.055-0.433,5.772-42.138,40.835-61.829c8.965,1.712,17.497,2.56,25.083,2.414
	c10.881,18.84,28.713,66.786,58.519,52.878c14.231-6.641,9.444-26.757,7.872-33.367c-2.341-9.837-7.788-23.011-11.1-31.695
	c9,2,17.004-1.453,22.006-7.301c4.839,3.244,11.837,8.485,19.338,15.334c13.954,12.742,19.808,22.207,20.692,26.98
	c0.251,4.936,2.309,36.132,15.204,67.762c9.018,22.12,21.218,39.29,36.216,51.225L337.991,491.526L337.991,491.526z"/>
<g>
</g>
<g>
</g>
<g>
</g>
<g>
</g>
<g>
</g>
<g>
</g>
<g>
</g>
<g>
</g>
<g>
</g>
<g>
</g>
<g>
</g>
<g>
</g>
<g>
</g>
<g>
</g>
<g>
</g>
</svg>
