<?xml version="1.0" encoding="iso-8859-1"?>
<!-- Generator: Adobe Illustrator 19.0.0, SVG Export Plug-In . SVG Version: 6.00 Build 0)  -->
<svg version="1.1" id="Capa_1" xmlns="http://www.w3.org/2000/svg" xmlns:xlink="http://www.w3.org/1999/xlink" x="0px" y="0px"
	 viewBox="0 0 512 512" style="enable-background:new 0 0 512 512;" xml:space="preserve">
<path style="fill:#F7D291;" d="M283.349,141.794c-7.073-3.772-15.561-3.772-22.633,0L151.79,199.887h240.484L283.349,141.794z"/>
<path style="fill:#F0C382;" d="M282.489,141.463c-6.899-3.343-14.975-3.295-21.772,0.331L151.79,199.887h72.145l58.093-58.093
	C282.177,141.647,282.339,141.598,282.489,141.463z"/>
<g>
	<path style="fill:#FF8087;" d="M408.307,239.968H135.758l22.723,249.951c0.751,8.258,7.674,14.581,15.966,14.581h195.17
		c8.292,0,15.216-6.323,15.966-14.581L408.307,239.968z"/>
	<path style="fill:#FF8087;" d="M408.307,199.887H135.758v40.081h272.548c4.427,0,8.016-3.589,8.016-8.016v-24.048
		C416.323,203.476,412.734,199.887,408.307,199.887z"/>
</g>
<path style="fill:#E6646E;" d="M174.449,504.5h195.169c8.291,0,15.215-6.322,15.966-14.579l0.861-9.469H276.326
	c-20.627,0-37.886-15.656-39.891-36.186l-15.883-162.66c-0.92-9.425,6.486-17.59,15.956-17.59H406.12l2.186-24.048H135.758
	l22.723,249.951C159.232,498.177,166.157,504.5,174.449,504.5z"/>
<path style="fill:#EDEBED;" d="M95.678,392.274v53.76c0,30.725,23.676,57.518,54.386,58.44
	c31.778,0.954,57.839-24.523,57.839-56.087v-56.113H95.678z"/>
<path style="fill:#DBD9DC;" d="M151.79,440.371L151.79,440.371c-8.854,0-16.032-7.178-16.032-16.032v-80.161h32.065v80.161
	C167.824,433.193,160.646,440.371,151.79,440.371z"/>
<path style="fill:#FFE17D;" d="M183.855,127.742c0-8.855-7.178-16.032-16.032-16.032h-32.065c-8.854,0-16.032,7.178-16.032,16.032
	s7.178,16.032,16.032,16.032l0,0v200.403h32.065V143.774l0,0C176.678,143.774,183.855,136.596,183.855,127.742z"/>
<rect x="135.76" y="143.77" style="fill:#FFD164;" width="32.06" height="24.05"/>
<path d="M272.033,0c-33.582,0-65.406,10.745-92.031,31.072c-24.693,18.852-43.27,45.259-52.646,74.694
	c-8.837,3.391-15.13,11.96-15.13,21.976c0,10.354,6.725,19.161,16.033,22.3v234.732H95.678c-4.142,0-7.5,3.358-7.5,7.5v56.113
	c0,35.076,28.536,63.612,63.612,63.613l0,0h217.827c12.251,0,22.327-9.201,23.436-21.401l22.257-244.82
	c5.043-2.565,8.513-7.793,8.513-13.827V151.79C423.823,68.093,355.731,0,272.033,0z M189.105,42.994
	C213.092,24.68,241.769,15,272.033,15c75.427,0,136.791,61.364,136.791,136.79v40.597h-14.673L286.88,135.176
	c-9.296-4.958-20.396-4.957-29.692,0l-81.863,43.66v-28.795c9.308-3.139,16.032-11.946,16.032-22.3
	c0-12.976-10.557-23.532-23.532-23.532h-24.058C152.73,80.15,168.566,58.675,189.105,42.994z M160.324,151.274v185.403H143.26
	V151.274H160.324z M143.26,351.677h17.064v72.662c0,4.705-3.828,8.532-8.532,8.532s-8.532-3.828-8.532-8.532V351.677z
	 M362.274,192.387H181.792l82.454-43.976c4.877-2.601,10.698-2.601,15.575,0L362.274,192.387z M135.758,119.209h32.065
	c4.705,0,8.532,3.828,8.532,8.533s-3.828,8.532-8.532,8.532h-32.065c-4.705,0-8.532-3.828-8.532-8.533
	C127.227,123.037,131.053,119.209,135.758,119.209z M103.178,448.387v-48.613h25.082v24.565c0,12.976,10.557,23.532,23.532,23.532
	s23.532-10.557,23.532-23.532v-24.565h25.08v48.613c0,26.805-21.808,48.613-48.613,48.613S103.178,475.192,103.178,448.387z
	 M378.115,489.241c-0.402,4.423-4.055,7.759-8.497,7.759h-176.86c13.836-11.678,22.646-29.132,22.646-48.613v-56.113
	c0-4.142-3.358-7.5-7.5-7.5h-32.58V247.468h184.883c4.142,0,7.5-3.358,7.5-7.5s-3.358-7.5-7.5-7.5H175.324v-25.081h233.5v24.564
	c0,0.285-0.231,0.516-0.516,0.516h-0.08c-0.005,0-0.01,0-0.015,0h-15.939c-4.142,0-7.5,3.358-7.5,7.5s3.358,7.5,7.5,7.5h7.821
	L378.115,489.241z"/>
<g>
</g>
<g>
</g>
<g>
</g>
<g>
</g>
<g>
</g>
<g>
</g>
<g>
</g>
<g>
</g>
<g>
</g>
<g>
</g>
<g>
</g>
<g>
</g>
<g>
</g>
<g>
</g>
<g>
</g>
</svg>
