<?xml version="1.0" encoding="iso-8859-1"?>
<!-- Generator: Adobe Illustrator 19.0.0, SVG Export Plug-In . SVG Version: 6.00 Build 0)  -->
<svg version="1.1" id="Layer_1" xmlns="http://www.w3.org/2000/svg" xmlns:xlink="http://www.w3.org/1999/xlink" x="0px" y="0px"
	 viewBox="0 0 512 512" style="enable-background:new 0 0 512 512;" xml:space="preserve">
<g>
	<path style="fill:#35495E;" d="M427.441,250.408c-29.564,42.708-103.053,72.978-189.096,72.978
		c-77.127,0-144.207-24.311-178.573-60.107C22.484,285.515,0,314.169,0,345.454c0,70.691,114.617,128,256,128s256-57.309,256-128
		C512,307.734,479.356,273.836,427.441,250.408"/>
	<g>
		<path style="fill:#253747;" d="M427.441,250.408c-2.242,3.249-4.829,6.391-7.565,9.481c40.801,22.678,65.642,52.665,65.642,85.566
			c0,68.467-107.529,124.381-242.759,127.832c4.387,0.115,8.801,0.168,13.241,0.168c141.383,0,256-57.309,256-128
			C512,307.734,479.356,273.836,427.441,250.408"/>
		<path style="fill:#253747;" d="M256.001,444.917c-122.968,0-208.181-43.838-225.916-85.089c-1.933-4.476,0.141-9.666,4.617-11.591
			c4.476-1.942,9.666,0.141,11.599,4.617c13.286,30.897,87.128,74.408,209.699,74.408c4.873,0,8.828,3.955,8.828,8.828
			C264.828,440.962,260.874,444.917,256.001,444.917"/>
		<path style="fill:#253747;" d="M229.518,356.339c105.49,0,194.922-38.091,226.304-90.854
			c-8.651-5.394-18.123-10.452-28.381-15.078c-1.421,2.057-3.037,4.052-4.661,6.056c-0.953,1.139-1.898,2.295-2.904,3.425
			c-33.315,37.623-102.02,63.497-181.53,63.497c-77.127,0-144.207-24.311-178.573-60.107c-14.142,8.43-26.13,17.788-35.602,27.851
			C65.643,330.147,142.054,356.339,229.518,356.339"/>
	</g>
	<path style="fill:#5F7589;" d="M411.665,155.309c-28.822,20.136-75.882,33.306-129.183,33.306
		c-80.516,0-146.873-29.978-157.308-68.802c-54.201,20.604-89.865,55.587-89.865,95.285c0,63.382,90.906,114.759,203.034,114.759
		c112.137,0,203.035-51.377,203.035-114.759C441.378,193.197,430.512,172.726,411.665,155.309"/>
	<g>
		<path style="fill:#455968;" d="M411.665,155.309c-5.085,3.549-10.911,6.797-17.064,9.878
			c12.941,15.104,20.295,32.009,20.295,49.911c0,60.857-83.836,110.627-189.793,114.494c4.387,0.15,8.792,0.265,13.241,0.265
			c112.137,0,203.035-51.377,203.035-114.759C441.378,193.197,430.512,172.726,411.665,155.309"/>
		<path style="fill:#455968;" d="M238.346,302.468c-94.279,0-162.798-38.585-174.583-75.882c-1.465-4.652,1.112-9.604,5.756-11.079
			c4.626-1.465,9.613,1.112,11.079,5.764c9.693,30.685,75.388,63.541,157.749,63.541c4.873,0,8.828,3.955,8.828,8.828
			S243.219,302.468,238.346,302.468"/>
	</g>
	<path style="fill:#35495E;" d="M441.38,117.994c0,43.882-71.142,79.448-158.897,79.448s-158.897-35.566-158.897-79.448
		s71.142-79.448,158.897-79.448S441.38,74.112,441.38,117.994"/>
	<g>
		<path style="fill:#253747;" d="M282.484,38.546c-4.467,0-8.863,0.159-13.241,0.335c81.54,3.372,145.655,37.473,145.655,79.113
			s-64.115,75.741-145.655,79.113c4.379,0.177,8.775,0.335,13.241,0.335c87.755,0,158.897-35.566,158.897-79.448
			S370.239,38.546,282.484,38.546"/>
		<path style="fill:#253747;" d="M282.484,170.959c-64.124,0-110.442-20.25-126.349-39.062c-3.143-3.725-2.684-9.295,1.042-12.438
			c3.725-3.143,9.295-2.684,12.438,1.042c11.149,13.18,50.406,32.803,112.87,32.803c4.873,0,8.828,3.955,8.828,8.828
			C291.311,167.005,287.356,170.959,282.484,170.959"/>
	</g>
</g>
<g>
</g>
<g>
</g>
<g>
</g>
<g>
</g>
<g>
</g>
<g>
</g>
<g>
</g>
<g>
</g>
<g>
</g>
<g>
</g>
<g>
</g>
<g>
</g>
<g>
</g>
<g>
</g>
<g>
</g>
</svg>
