<?xml version="1.0" encoding="iso-8859-1"?>
<!-- Generator: Adobe Illustrator 19.0.0, SVG Export Plug-In . SVG Version: 6.00 Build 0)  -->
<svg version="1.1" id="Layer_1" xmlns="http://www.w3.org/2000/svg" xmlns:xlink="http://www.w3.org/1999/xlink" x="0px" y="0px"
	 viewBox="0 0 512 512" style="enable-background:new 0 0 512 512;" xml:space="preserve">
<polygon style="fill:#AAC36D;" points="503.83,507.915 8.171,507.915 8.171,268.255 29.958,235.575 8.171,202.894 8.171,170.213 
	503.83,170.213 503.83,300.936 482.043,349.958 503.83,398.979 503.83,431.66 482.043,453.311 503.83,475.234 "/>
<polygon style="fill:#55B9D3;" points="503.83,300.936 503.83,398.979 471.149,398.979 427.575,349.958 471.149,300.936 "/>
<path style="fill:#8CE6FE;" d="M471.149,300.936v98.043H209.702c-27.071,0-49.021-21.951-49.021-49.021s21.951-49.021,49.021-49.021
	H471.149z"/>
<path style="fill:#55B9D3;" d="M204.256,202.894h-32.681v65.362h32.681c18.051,0,32.681-14.63,32.681-32.681
	S222.306,202.894,204.256,202.894z"/>
<path style="fill:#8CE6FE;" d="M171.575,202.894c18.051,0,32.681,14.63,32.681,32.681s-14.63,32.681-32.681,32.681H8.171v-65.362
	H171.575z"/>
<path style="fill:#55B9D3;" d="M438.468,202.894h-32.681v65.362h32.681c18.051,0,32.681-14.63,32.681-32.681
	S456.519,202.894,438.468,202.894z"/>
<path style="fill:#8CE6FE;" d="M405.788,202.894c18.051,0,32.681,14.63,32.681,32.681s-14.63,32.681-32.681,32.681H302.298
	c-18.051,0-32.681-14.63-32.681-32.681s14.63-32.681,32.681-32.681H405.788z"/>
<path style="fill:#55B9D3;" d="M84.426,300.936H51.745v43.574h32.681c12.037,0,21.787-9.75,21.787-21.787
	C106.213,310.686,96.463,300.936,84.426,300.936z"/>
<path style="fill:#8CE6FE;" d="M51.745,300.936c12.037,0,21.787,9.75,21.787,21.787c0,12.037-9.75,21.787-21.787,21.787H29.958
	c-12.037,0-21.787-9.75-21.787-21.787c0-12.037,9.75-21.787,21.787-21.787H51.745z"/>
<path style="fill:#55B9D3;" d="M503.83,431.66v43.574l-32.681-0.022l-21.787-21.902l21.787-21.651
	C471.149,431.638,503.83,431.66,503.83,431.66z"/>
<path style="fill:#8CE6FE;" d="M471.149,431.66v43.553l-212.426-0.109c-12.037,0-21.787-9.761-21.787-21.787
	c0-12.037,9.75-21.787,21.787-21.787C258.724,431.529,471.149,431.638,471.149,431.66z"/>
<polygon style="fill:#AAC36D;" points="454.264,12.256 503.83,132.085 454.264,132.085 443.371,91.234 "/>
<polygon style="fill:#CAED73;" points="454.264,12.256 454.264,132.085 404.698,132.085 "/>
<g>
	<path style="fill:#FFFFFF;" d="M503.83,341.787H307.745c-4.513,0-8.17-3.658-8.17-8.17c0-4.512,3.657-8.17,8.17-8.17H503.83
		c4.513,0,8.17,3.658,8.17,8.17C512,338.129,508.343,341.787,503.83,341.787z"/>
	<path style="fill:#FFFFFF;" d="M275.064,341.787h-65.362c-4.512,0-8.17-3.658-8.17-8.17c0-4.512,3.658-8.17,8.17-8.17h65.362
		c4.513,0,8.17,3.658,8.17,8.17C283.234,338.129,279.577,341.787,275.064,341.787z"/>
	<path style="fill:#FFFFFF;" d="M503.83,374.468H384c-4.513,0-8.17-3.658-8.17-8.17c0-4.512,3.657-8.17,8.17-8.17h119.83
		c4.513,0,8.17,3.658,8.17,8.17C512,370.81,508.343,374.468,503.83,374.468z"/>
	<path style="fill:#FFFFFF;" d="M138.894,243.745H8.171c-4.512,0-8.17-3.658-8.17-8.17s3.658-8.17,8.17-8.17h130.723
		c4.512,0,8.17,3.658,8.17,8.17S143.406,243.745,138.894,243.745z"/>
</g>
<polygon style="fill:#AAC36D;" points="57.737,12.256 107.302,132.085 57.737,132.085 46.843,91.234 "/>
<polygon style="fill:#CAED73;" points="57.737,12.256 57.737,132.085 8.171,132.085 "/>
<polygon style="fill:#AAC36D;" points="189.549,12.256 239.115,132.085 189.549,132.085 178.656,91.234 "/>
<polygon style="fill:#CAED73;" points="189.549,12.256 189.549,132.085 139.983,132.085 "/>
<path d="M8.171,162.043c-4.512,0-8.17,3.658-8.17,8.17c0,4.512,3.658,8.17,8.17,8.17h495.66c4.513,0,8.17-3.658,8.17-8.17
	c0-4.512-3.657-8.17-8.17-8.17h-41.396v-21.787h41.396c2.728,0,5.276-1.362,6.792-3.63s1.8-5.143,0.757-7.664L461.813,9.132
	c-1.264-3.055-4.244-5.047-7.55-5.047s-6.287,1.992-7.55,5.047l-49.566,119.83c-1.043,2.521-0.758,5.396,0.757,7.664
	c1.517,2.268,4.064,3.63,6.792,3.63h41.396v21.787H197.717v-21.787h41.396c2.728,0,5.276-1.362,6.792-3.63s1.801-5.143,0.758-7.664
	L197.097,9.132c-1.264-3.055-4.244-5.047-7.55-5.047s-6.287,1.992-7.55,5.047l-49.566,119.83c-1.043,2.521-0.758,5.396,0.758,7.664
	s4.063,3.63,6.792,3.63h41.396v21.787H65.905v-21.787H107.3c2.728,0,5.276-1.362,6.792-3.63s1.801-5.143,0.758-7.664L65.285,9.132
	c-1.261-3.055-4.242-5.047-7.548-5.047s-6.287,1.992-7.55,5.047L0.62,128.962c-1.043,2.521-0.758,5.396,0.758,7.664
	s4.063,3.63,6.792,3.63h41.396v21.787H8.171z M454.264,33.631l37.344,90.284h-74.69L454.264,33.631z M189.549,33.631l37.344,90.284
	h-74.69L189.549,33.631z M57.737,33.631l37.344,90.284H20.392L57.737,33.631z"/>
<path d="M503.83,390.809H373.107c-4.513,0-8.17,3.658-8.17,8.17c0,4.512,3.657,8.17,8.17,8.17H503.83c4.513,0,8.17-3.658,8.17-8.17
	C512,394.467,508.343,390.809,503.83,390.809z"/>
<path d="M503.83,292.766H209.702c-31.536,0-57.191,25.656-57.191,57.191s25.656,57.191,57.191,57.191h130.723
	c4.513,0,8.17-3.658,8.17-8.17c0-4.512-3.657-8.17-8.17-8.17H209.702c-22.526,0-40.851-18.325-40.851-40.851
	c0-22.526,18.325-40.851,40.851-40.851H503.83c4.513,0,8.17-3.658,8.17-8.17C512,296.424,508.343,292.766,503.83,292.766z"/>
<path d="M8.171,211.064h196.085c13.516,0,24.511,10.995,24.511,24.511s-10.995,24.511-24.511,24.511H73.532
	c-4.512,0-8.17,3.658-8.17,8.17s3.658,8.17,8.17,8.17h130.723c22.526,0,40.851-18.325,40.851-40.851s-18.325-40.851-40.851-40.851
	H8.171c-4.512,0-8.17,3.658-8.17,8.17S3.658,211.064,8.171,211.064z"/>
<path d="M8.171,276.426h32.681c4.512,0,8.17-3.658,8.17-8.17s-3.658-8.17-8.17-8.17H8.171c-4.512,0-8.17,3.658-8.17,8.17
	S3.658,276.426,8.171,276.426z"/>
<path d="M302.298,194.724c-22.526,0-40.851,18.325-40.851,40.851s18.325,40.851,40.851,40.851h136.17
	c22.526,0,40.851-18.325,40.851-40.851s-18.325-40.851-40.851-40.851H302.298z M462.979,235.575
	c0,13.516-10.996,24.511-24.511,24.511h-136.17c-13.515,0-24.511-10.995-24.511-24.511s10.996-24.511,24.511-24.511h136.17
	C451.983,211.064,462.979,222.059,462.979,235.575z"/>
<path d="M84.426,292.766H29.958C13.439,292.766,0,306.204,0,322.724c0,16.519,13.438,29.957,29.957,29.957h54.468
	c16.519,0,29.957-13.438,29.957-29.957C114.383,306.204,100.945,292.766,84.426,292.766z M84.426,336.341H29.958
	c-7.509,0-13.617-6.108-13.617-13.617s6.108-13.617,13.617-13.617h54.468c7.509,0,13.617,6.108,13.617,13.617
	S91.935,336.341,84.426,336.341z"/>
<path d="M258.719,439.694l245.106,0.136c4.514,0,8.172-3.655,8.175-8.166c0.002-4.512-3.654-8.171-8.166-8.175l-245.111-0.136
	c-16.519,0-29.957,13.438-29.957,29.957c0,16.593,13.438,30.094,29.957,30.094H503.83c4.513,0,8.17-3.658,8.17-8.17
	c0-4.512-3.657-8.17-8.17-8.17H258.724c-7.509,0-13.617-6.17-13.617-13.753C245.107,445.803,251.216,439.694,258.719,439.694z"/>
<g>
</g>
<g>
</g>
<g>
</g>
<g>
</g>
<g>
</g>
<g>
</g>
<g>
</g>
<g>
</g>
<g>
</g>
<g>
</g>
<g>
</g>
<g>
</g>
<g>
</g>
<g>
</g>
<g>
</g>
</svg>
